<svg width="140" height="140" fill="none" xmlns="http://www.w3.org/2000/svg"><path d="M70 140c38.66 0 70-31.34 70-70S108.66 0 70 0 0 31.34 0 70s31.34 70 70 70z" fill="#764BA2"/><path d="M108.232 41.793c1.244 1.279 1.313 2.73.173 4.079-.83.933-.968.968-5.082 1.14-3.94.173-4.286.242-4.39.865-.034.38-.311 1.555-.553 2.592-1.002 3.906-1.66 6.464-2.178 8.47-.276 1.14-.726 3.007-1.037 4.148-.276 1.14-.726 3.007-1.037 4.148-.276 1.14-.726 2.938-.968 3.975-2.523 10.301-2.869 11.13-5.116 12.306-.588.311-1.624.657-2.281.795-1.314.242-1.625.83-.484 1.002 1.106.174 3.906 3.146 4.632 4.944 3.042 7.466-5.047 15.314-12.306 11.926-4.632-2.143-6.81-7.19-5.082-11.753.76-1.97 2.8-4.218 4.425-4.91.657-.276 1.106-.656 1.002-.828-.276-.45-21.155-.45-21.432 0-.104.172.346.552 1.002.829 1.556.657 3.665 2.904 4.391 4.77 3.042 7.432-5.082 15.28-12.306 11.892-4.632-2.143-6.81-7.19-5.082-11.753.76-1.97 2.8-4.218 4.425-4.91 1.313-.552 1.279-1.174-.07-1.174-1.036 0-3.214-1.072-3.974-1.936-.726-.83-2.04-3.699-2.04-4.494 0-.311-.242-1.279-.484-2.178a172.52 172.52 0 01-1.072-3.56c-.933-3.457-1.555-5.738-2.074-7.605-.242-1.002-.726-2.765-1.037-3.906-.346-1.141-.83-2.939-1.106-3.976a89.516 89.516 0 00-1.002-3.456c-.277-.864-.484-1.902-.484-2.35v-.762h25.753c20.844 0 25.822.07 25.96.45.07.242-.069 1.037-.38 1.728-.277.692-.519 1.694-.519 2.247 0 .553-.207 1.21-.449 1.418-.346.276-6.637.414-21.363.449l-20.879.104.07.864c.068.484.345 1.728.656 2.765.311 1.037.795 2.731 1.037 3.699.277 1.002.726 2.696 1.003 3.733.31 1.037.76 2.766 1.036 3.803.312 1.037.795 2.8 1.107 3.871.31 1.107.587 2.213.657 2.454.103.346 3.871.415 18.01.346 17.595-.103 17.906-.103 18.01-.795.034-.38.31-1.624.621-2.765.312-1.14.761-2.938 1.003-3.975.518-2.075 1.21-4.875 2.04-8.228.31-1.175.76-3.042 1.037-4.148.276-1.071.76-2.972 1.071-4.217.311-1.244.795-3.18 1.072-4.321 1.451-5.807 2.074-6.983 4.32-8.123 1.107-.588 2.04-.692 6.016-.692h4.735l1.003 1.003zM79.126 91.57c-.692.69-1.003 1.347-1.003 2.108 0 1.487 1.625 3.111 3.111 3.111 1.487 0 3.111-1.624 3.111-3.11 0-.762-.31-1.418-1.002-2.11-1.383-1.348-2.835-1.348-4.218 0zm-28 0c-.692.69-1.003 1.347-1.003 2.108 0 1.487 1.625 3.111 3.111 3.111 1.486 0 3.111-1.624 3.111-3.11 0-.762-.31-1.418-1.002-2.11-1.383-1.348-2.835-1.348-4.218 0z" fill="#fff"/></svg>