<svg width="876" height="295" fill="none" xmlns="http://www.w3.org/2000/svg"><path d="M134.436 196.031c-23.185 1.18-29.185-13.32-26.185-23.32-9.24 20.817-42.543 35.402-57.92 40.225l-43.08 6.775c-15.376 8.212 1 14 5 15s1.5 1.5 32.49 3.548c41.093 2.715 72.51-29.048 89.695-42.228z" fill="#764BA2"/><path d="M317.122 92.488c-19.068 5.998-40.387 6.498-48.664 5.998-9.646 0-24.544-12.996-30.787-19.494C213.658 54 209.9 54 199.435 54c-10.466 0-72.004 68.479-77.466 79.975-5.462 11.497-21.849 51.485 4.966 56.483 26.815 4.999 29.298 3.999 57.106 14.996 27.474 10.864 44.284 54.42 48.036 64.141l.131.339c2.781 7.198 9.104 10.33 11.918 10.997 8.111.999 19.466-8.398 0-53.984s-62.072-66.646-80.941-71.478c2.78-15.595 36.25-39.488 52.636-49.485 2.483 1.333 12.911 5.698 34.761 12.496 21.849 6.798 46.512.167 56.112-3.999 7.118-1.832 21.155-7.597 20.36-15.995-.795-8.397-6.952-7.497-9.932-5.998z" fill="#764BA2"/><path d="M325.03 78.992c-45.287 16.795-65.612 12.005-76.53 1.508 0 2.333 1.051 8.902 18.5 14.5 17.449 5.598 33.177-3.507 43.133-5.511C322.5 87 328 88 332.975 89.489c-.397-10.397-5.462-11.33-7.945-10.497zM283 34.5c0 19.054-15.446 34.5-34.5 34.5-19.054 0-34.5-15.446-34.5-34.5C214 15.446 229.446 0 248.5 0 267.554 0 283 15.446 283 34.5zM370.587 208l36-103.5h-71.5c-4.4-9.6-.833-15 1.5-16.5h181.5c6 8.4-.833 14.5-5 16.5h-73.5l-19 50 68 1.5c6 4.4.5 11.167-3 14l-70 2.5-21.5 57 94.5-9c3.6 8-3.5 14-7.5 16l-44 4-43 3.5c-26-3.5-25.667-26.167-23.5-36zM427 276c0 10.493-8.507 19-19 19s-19-8.507-19-19 8.507-19 19-19 19 8.507 19 19zM482 267c0 10.493-8.507 19-19 19s-19-8.507-19-19 8.507-19 19-19 19 8.507 19 19z" fill="#764BA2"/><path d="M471 267c0 3.866-3.358 7-7.5 7-4.142 0-7.5-3.134-7.5-7s3.358-7 7.5-7c4.142 0 7.5 3.134 7.5 7zM415 276c0 3.866-3.358 7-7.5 7-4.142 0-7.5-3.134-7.5-7s3.358-7 7.5-7c4.142 0 7.5 3.134 7.5 7zM587.039 156.887c0-4.056-1.048-7.11-3.144-9.16-2.051-2.097-5.811-4.262-11.28-6.495-9.98-3.782-17.158-8.203-21.533-13.261-4.375-5.104-6.562-11.12-6.562-18.047 0-8.386 2.962-15.108 8.886-20.166 5.97-5.104 13.535-7.656 22.696-7.656 6.106 0 11.552 1.298 16.337 3.896 4.786 2.552 8.454 6.175 11.006 10.87 2.598 4.693 3.897 10.025 3.897 15.995h-20.03c0-4.648-1.002-8.18-3.007-10.595-1.96-2.461-4.808-3.692-8.545-3.692-3.509 0-6.244 1.048-8.203 3.145-1.96 2.05-2.94 4.83-2.94 8.34 0 2.734 1.094 5.218 3.281 7.451 2.188 2.187 6.062 4.466 11.622 6.836 9.707 3.509 16.748 7.815 21.123 12.92 4.42 5.104 6.63 11.598 6.63 19.482 0 8.659-2.757 15.426-8.271 20.303-5.514 4.876-13.011 7.314-22.49 7.314-6.426 0-12.282-1.321-17.569-3.965-5.286-2.643-9.433-6.425-12.441-11.347-2.962-4.922-4.443-10.733-4.443-17.432h20.166c0 5.742 1.116 9.912 3.349 12.51 2.233 2.597 5.879 3.896 10.938 3.896 7.018 0 10.527-3.714 10.527-11.142zM677.366 100.217h-24.609V183h-20.166v-82.783h-24.199V83.469h68.974v16.748zM720.526 162.629h-27.412L687.782 183h-21.26l31.103-99.531h18.389L747.323 183h-21.465l-5.332-20.371zm-23.037-16.748h18.593l-9.296-35.479-9.297 35.479zM566.096 273.32h35.273V290h-55.371v-99.531h20.098v82.851zM626.14 273.32h41.015V290h-64.531v-12.1l40.606-70.683h-41.016v-16.748h64.19v11.826L626.14 273.32z" fill="#764BA2"/><path d="M720.295 269.629h-27.412L687.551 290h-21.26l31.104-99.531h18.389L747.092 290h-21.465l-5.332-20.371zm-23.037-16.748h18.594l-9.297-35.479-9.297 35.479zM778.904 253.633h-9.981V290h-20.097v-99.531h32.06c10.072 0 17.842 2.62 23.311 7.861 5.514 5.195 8.271 12.601 8.271 22.217 0 13.216-4.808 22.467-14.423 27.754l17.431 40.742V290h-21.601l-14.971-36.367zm-9.981-16.748h11.416c4.011 0 7.019-1.322 9.024-3.965 2.005-2.689 3.008-6.266 3.008-10.732 0-9.981-3.897-14.971-11.69-14.971h-11.758v29.668zM869.983 246.934h-31.308v26.386h37.05V290h-57.148v-99.531h57.012v16.748h-36.914v23.515h31.308v16.202z" fill="#764BA2"/></svg>