<svg width="196" height="224" fill="none" xmlns="http://www.w3.org/2000/svg"><path d="M98 112c30.931 0 56-25.069 56-56S128.931 0 98 0 42 25.069 42 56s25.069 56 56 56zm39.2 14h-7.306c-9.713 4.462-20.519 7-31.894 7s-22.138-2.538-31.894-7H58.8C26.338 126 0 152.337 0 184.8V203c0 11.594 9.406 21 21 21h154c11.594 0 21-9.406 21-21v-18.2c0-32.463-26.337-58.8-58.8-58.8z" fill="url(#paint0_linear)"/><defs><linearGradient id="paint0_linear" x1="98" y1="0" x2="98" y2="224" gradientUnits="userSpaceOnUse"><stop stop-color="#764BA2"/><stop offset=".453" stop-color="#553774" stop-opacity=".547"/><stop offset=".641" stop-color="#51346E" stop-opacity=".484"/><stop offset="1" stop-color="#2D1F3D" stop-opacity="0"/></linearGradient></defs></svg>